<?xml version="1.0" encoding="UTF-8" standalone="no"?>
<!DOCTYPE svg PUBLIC "-//W3C//DTD SVG 1.1//EN"
 "http://www.w3.org/Graphics/SVG/1.1/DTD/svg11.dtd">
<!-- Generated by graphviz version 12.2.1 (20241206.2353)
 -->
<!-- Pages: 1 -->
<svg width="1096pt" height="735pt"
 viewBox="0.00 0.00 1095.87 735.00" xmlns="http://www.w3.org/2000/svg" xmlns:xlink="http://www.w3.org/1999/xlink">
<g id="graph0" class="graph" transform="scale(1 1) rotate(0) translate(4 731)">
<polygon fill="white" stroke="none" points="-4,4 -4,-731 1091.87,-731 1091.87,4 -4,4"/>
<!-- A -->
<g id="node1" class="node">
<title>A</title>
<path fill="#f2d7d5" stroke="#2c3e50" stroke-width="1.5" d="M621.25,-727C621.25,-727 402.75,-727 402.75,-727 396.75,-727 390.75,-721 390.75,-715 390.75,-715 390.75,-699.5 390.75,-699.5 390.75,-693.5 396.75,-687.5 402.75,-687.5 402.75,-687.5 621.25,-687.5 621.25,-687.5 627.25,-687.5 633.25,-693.5 633.25,-699.5 633.25,-699.5 633.25,-715 633.25,-715 633.25,-721 627.25,-727 621.25,-727"/>
<text text-anchor="middle" x="512" y="-709.7" font-family="Arial" font-size="14.00" fill="#78281f">Herausforderung:</text>
<text text-anchor="middle" x="512" y="-693.95" font-family="Arial" font-size="14.00" fill="#78281f">Klimawandel &amp; steigende Emissionen</text>
</g>
<!-- B -->
<g id="node2" class="node">
<title>B</title>
<path fill="#eaecee" stroke="#2c3e50" stroke-width="1.5" d="M691.37,-650.5C691.37,-650.5 332.62,-650.5 332.62,-650.5 326.62,-650.5 320.62,-644.5 320.62,-638.5 320.62,-638.5 320.62,-623 320.62,-623 320.62,-617 326.62,-611 332.62,-611 332.62,-611 691.37,-611 691.37,-611 697.37,-611 703.37,-617 703.37,-623 703.37,-623 703.37,-638.5 703.37,-638.5 703.37,-644.5 697.37,-650.5 691.37,-650.5"/>
<text text-anchor="middle" x="512" y="-633.2" font-family="Arial" font-size="14.00" fill="#2c3e50">Analyseinstrument (Identität):</text>
<text text-anchor="middle" x="512" y="-617.45" font-family="Arial" font-size="14.00" fill="#2c3e50">Emissionen = Wirtschaftsleistung (BIP) × Emissionsintensität</text>
</g>
<!-- A&#45;&gt;B -->
<g id="edge1" class="edge">
<title>A&#45;&gt;B</title>
<path fill="none" stroke="#34495e" d="M512,-687.06C512,-679.42 512,-670.43 512,-661.95"/>
<polygon fill="#34495e" stroke="#34495e" points="512,-652.09 516.5,-662.09 512,-655.87 512,-662.09 512,-662.09 512,-662.09 512,-655.87 507.5,-662.09 512,-652.09"/>
</g>
<!-- C -->
<g id="node3" class="node">
<title>C</title>
<path fill="#d5f5e3" stroke="#2c3e50" stroke-width="1.5" d="M642.25,-574C642.25,-574 381.75,-574 381.75,-574 375.75,-574 369.75,-568 369.75,-562 369.75,-562 369.75,-530.75 369.75,-530.75 369.75,-524.75 375.75,-518.75 381.75,-518.75 381.75,-518.75 642.25,-518.75 642.25,-518.75 648.25,-518.75 654.25,-524.75 654.25,-530.75 654.25,-530.75 654.25,-562 654.25,-562 654.25,-568 648.25,-574 642.25,-574"/>
<text text-anchor="middle" x="512" y="-556.7" font-family="Arial" font-size="14.00" fill="#145a32">Ziel:</text>
<text text-anchor="middle" x="512" y="-540.95" font-family="Arial" font-size="14.00" fill="#145a32">Klimaneutralität (Emissionen → 0)</text>
<text text-anchor="middle" x="512" y="-525.2" font-family="Arial" font-size="14.00" fill="#145a32">(Erfordert Senkung der Intensität gegen Null)</text>
</g>
<!-- B&#45;&gt;C -->
<g id="edge2" class="edge">
<title>B&#45;&gt;C</title>
<path fill="none" stroke="#34495e" d="M512,-610.64C512,-603.18 512,-594.33 512,-585.66"/>
<polygon fill="#34495e" stroke="#34495e" points="512,-575.71 516.5,-585.71 512,-579.49 512,-585.71 512,-585.71 512,-585.71 512,-579.49 507.5,-585.71 512,-575.71"/>
</g>
<!-- D1 -->
<g id="node4" class="node">
<title>D1</title>
<path fill="#d4efdf" stroke="#27ae60" stroke-width="1.5" d="M477.37,-470.75C477.37,-470.75 268.62,-470.75 268.62,-470.75 262.62,-470.75 256.62,-464.75 256.62,-458.75 256.62,-458.75 256.62,-443.25 256.62,-443.25 256.62,-437.25 262.62,-431.25 268.62,-431.25 268.62,-431.25 477.37,-431.25 477.37,-431.25 483.37,-431.25 489.37,-437.25 489.37,-443.25 489.37,-443.25 489.37,-458.75 489.37,-458.75 489.37,-464.75 483.37,-470.75 477.37,-470.75"/>
<text text-anchor="middle" x="373" y="-453.45" font-family="Arial" font-size="14.00" fill="#196f3d">Pfad A: Grünes Wachstum</text>
<text text-anchor="middle" x="373" y="-437.7" font-family="Arial" font-size="14.00" fill="#196f3d">(BIP ↑ bei stark sinkender Intensität)</text>
</g>
<!-- C&#45;&gt;D1 -->
<g id="edge3" class="edge">
<title>C&#45;&gt;D1</title>
<path fill="none" stroke="#34495e" d="M471.79,-518.37C452.59,-505.47 429.73,-490.11 410.84,-477.42"/>
<polygon fill="#34495e" stroke="#34495e" points="402.65,-471.92 413.46,-473.76 405.79,-474.03 410.95,-477.5 410.95,-477.5 410.95,-477.5 405.79,-474.03 408.44,-481.23 402.65,-471.92"/>
<text text-anchor="middle" x="459" y="-491.25" font-family="Arial" font-size="10.00"> Ansatz</text>
</g>
<!-- D2 -->
<g id="node5" class="node">
<title>D2</title>
<path fill="#fadbd8" stroke="#c0392b" stroke-width="1.5" d="M788.37,-470.75C788.37,-470.75 525.62,-470.75 525.62,-470.75 519.62,-470.75 513.62,-464.75 513.62,-458.75 513.62,-458.75 513.62,-443.25 513.62,-443.25 513.62,-437.25 519.62,-431.25 525.62,-431.25 525.62,-431.25 788.37,-431.25 788.37,-431.25 794.37,-431.25 800.37,-437.25 800.37,-443.25 800.37,-443.25 800.37,-458.75 800.37,-458.75 800.37,-464.75 794.37,-470.75 788.37,-470.75"/>
<text text-anchor="middle" x="657" y="-453.45" font-family="Arial" font-size="14.00" fill="#7b241c">Pfad B: Degrowth / Postwachstum</text>
<text text-anchor="middle" x="657" y="-437.7" font-family="Arial" font-size="14.00" fill="#7b241c">(Gezielte Schrumpfung / Stagnation des BIP)</text>
</g>
<!-- C&#45;&gt;D2 -->
<g id="edge4" class="edge">
<title>C&#45;&gt;D2</title>
<path fill="none" stroke="#34495e" d="M553.94,-518.37C574.06,-505.41 598.03,-489.97 617.79,-477.25"/>
<polygon fill="#34495e" stroke="#34495e" points="626.09,-471.9 620.12,-481.1 622.91,-473.95 617.68,-477.32 617.68,-477.32 617.68,-477.32 622.91,-473.95 615.25,-473.53 626.09,-471.9"/>
<text text-anchor="middle" x="613.98" y="-491.25" font-family="Arial" font-size="10.00"> Ansatz</text>
</g>
<!-- E1 -->
<g id="node6" class="node">
<title>E1</title>
<path fill="#ebf5fb" stroke="#2c3e50" stroke-width="1.5" d="M435.37,-383.25C435.37,-383.25 148.62,-383.25 148.62,-383.25 142.62,-383.25 136.62,-377.25 136.62,-371.25 136.62,-371.25 136.62,-355.75 136.62,-355.75 136.62,-349.75 142.62,-343.75 148.62,-343.75 148.62,-343.75 435.37,-343.75 435.37,-343.75 441.37,-343.75 447.37,-349.75 447.37,-355.75 447.37,-355.75 447.37,-371.25 447.37,-371.25 447.37,-377.25 441.37,-383.25 435.37,-383.25"/>
<text text-anchor="middle" x="292" y="-365.95" font-family="Arial" font-size="14.00">Gesellschaftliche Wohlfahrt</text>
<text text-anchor="middle" x="292" y="-350.2" font-family="Arial" font-size="14.00">(Lebenserwartung, Bildung, Lebenszufriedenheit)</text>
</g>
<!-- D1&#45;&gt;E1 -->
<g id="edge5" class="edge">
<title>D1&#45;&gt;E1</title>
<path fill="none" stroke="#34495e" d="M355.02,-431.02C344.08,-419.48 329.94,-404.55 317.82,-391.76"/>
<polygon fill="#34495e" stroke="#34495e" points="311.04,-384.6 321.18,-388.77 313.64,-387.35 317.92,-391.86 317.92,-391.86 317.92,-391.86 313.64,-387.35 314.65,-394.96 311.04,-384.6"/>
<text text-anchor="middle" x="384.22" y="-403.75" font-family="Arial" font-size="10.00">Unterstützt empirisch</text>
</g>
<!-- E2 -->
<g id="node7" class="node">
<title>E2</title>
<path fill="#ebf5fb" stroke="#2c3e50" stroke-width="1.5" d="M435.12,-295.75C435.12,-295.75 146.87,-295.75 146.87,-295.75 140.87,-295.75 134.87,-289.75 134.87,-283.75 134.87,-283.75 134.87,-268.25 134.87,-268.25 134.87,-262.25 140.87,-256.25 146.87,-256.25 146.87,-256.25 435.12,-256.25 435.12,-256.25 441.12,-256.25 447.12,-262.25 447.12,-268.25 447.12,-268.25 447.12,-283.75 447.12,-283.75 447.12,-289.75 441.12,-295.75 435.12,-295.75"/>
<text text-anchor="middle" x="291" y="-278.45" font-family="Arial" font-size="14.00">Entschärfung von Verteilungskonflikten</text>
<text text-anchor="middle" x="291" y="-262.7" font-family="Arial" font-size="14.00">(Einkommenszuwächse ohne absoluten Verzicht)</text>
</g>
<!-- D1&#45;&gt;E2 -->
<g id="edge6" class="edge">
<title>D1&#45;&gt;E2</title>
<path fill="none" stroke="#34495e" d="M256.56,-444.13C163.56,-436.72 43.91,-420.13 13.25,-383.25 -29.56,-331.77 42.27,-305.18 123.58,-291.48"/>
<polygon fill="#34495e" stroke="#34495e" points="133.38,-289.9 124.22,-295.93 129.65,-290.5 123.51,-291.49 123.51,-291.49 123.51,-291.49 129.65,-290.5 122.79,-287.05 133.38,-289.9"/>
<text text-anchor="middle" x="70.62" y="-360" font-family="Arial" font-size="10.00">Fungiert als Mechanismus</text>
</g>
<!-- E3 -->
<g id="node8" class="node">
<title>E3</title>
<path fill="#ebf5fb" stroke="#2c3e50" stroke-width="1.5" d="M520.87,-219.25C520.87,-219.25 207.12,-219.25 207.12,-219.25 201.12,-219.25 195.12,-213.25 195.12,-207.25 195.12,-207.25 195.12,-191.75 195.12,-191.75 195.12,-185.75 201.12,-179.75 207.12,-179.75 207.12,-179.75 520.87,-179.75 520.87,-179.75 526.87,-179.75 532.87,-185.75 532.87,-191.75 532.87,-191.75 532.87,-207.25 532.87,-207.25 532.87,-213.25 526.87,-219.25 520.87,-219.25"/>
<text text-anchor="middle" x="364" y="-201.95" font-family="Arial" font-size="14.00">Finanzierung der Dekarbonisierung</text>
<text text-anchor="middle" x="364" y="-186.2" font-family="Arial" font-size="14.00">(Wachstum sichert grüne Investitionen &amp; Profitabilität)</text>
</g>
<!-- D1&#45;&gt;E3 -->
<g id="edge7" class="edge">
<title>D1&#45;&gt;E3</title>
<path fill="none" stroke="#34495e" d="M413.63,-430.86C431.29,-419.87 449.44,-404.06 456,-383.25 472.96,-329.42 483.7,-305.43 456,-256.25 448.76,-243.41 437.25,-233.19 424.79,-225.2"/>
<polygon fill="#34495e" stroke="#34495e" points="416.17,-220.13 427.07,-221.32 419.43,-222.05 424.79,-225.2 424.79,-225.2 424.79,-225.2 419.43,-222.05 422.51,-229.08 416.17,-220.13"/>
<text text-anchor="middle" x="519.06" y="-316.25" font-family="Arial" font-size="10.00">Erleichtert &amp; treibt an</text>
</g>
<!-- F1 -->
<g id="node9" class="node">
<title>F1</title>
<path fill="#fef9e7" stroke="#2c3e50" stroke-width="1.5" d="M1075.87,-383.25C1075.87,-383.25 810.12,-383.25 810.12,-383.25 804.12,-383.25 798.12,-377.25 798.12,-371.25 798.12,-371.25 798.12,-355.75 798.12,-355.75 798.12,-349.75 804.12,-343.75 810.12,-343.75 810.12,-343.75 1075.87,-343.75 1075.87,-343.75 1081.87,-343.75 1087.87,-349.75 1087.87,-355.75 1087.87,-355.75 1087.87,-371.25 1087.87,-371.25 1087.87,-377.25 1081.87,-383.25 1075.87,-383.25"/>
<text text-anchor="middle" x="943" y="-365.95" font-family="Arial" font-size="14.00">Massive Verteilungskonflikte</text>
<text text-anchor="middle" x="943" y="-350.2" font-family="Arial" font-size="14.00">(Nullsummenspiel; Reiche verteidigen Macht)</text>
</g>
<!-- D2&#45;&gt;F1 -->
<g id="edge10" class="edge">
<title>D2&#45;&gt;F1</title>
<path fill="none" stroke="#34495e" d="M721.18,-430.81C764.79,-417.78 822.61,-400.49 868.29,-386.83"/>
<polygon fill="#34495e" stroke="#34495e" points="877.86,-383.97 869.57,-391.15 874.24,-385.06 868.28,-386.84 868.28,-386.84 868.28,-386.84 874.24,-385.06 866.99,-382.53 877.86,-383.97"/>
<text text-anchor="middle" x="847.49" y="-403.75" font-family="Arial" font-size="10.00">Risiko / Folge</text>
</g>
<!-- F2 -->
<g id="node10" class="node">
<title>F2</title>
<path fill="#fef9e7" stroke="#2c3e50" stroke-width="1.5" d="M986.87,-295.75C986.87,-295.75 697.12,-295.75 697.12,-295.75 691.12,-295.75 685.12,-289.75 685.12,-283.75 685.12,-283.75 685.12,-268.25 685.12,-268.25 685.12,-262.25 691.12,-256.25 697.12,-256.25 697.12,-256.25 986.87,-256.25 986.87,-256.25 992.87,-256.25 998.87,-262.25 998.87,-268.25 998.87,-268.25 998.87,-283.75 998.87,-283.75 998.87,-289.75 992.87,-295.75 986.87,-295.75"/>
<text text-anchor="middle" x="842" y="-278.45" font-family="Arial" font-size="14.00">Psychologische Verlustaversion</text>
<text text-anchor="middle" x="842" y="-262.7" font-family="Arial" font-size="14.00">(Sinken der Lebenszufriedenheit durch Einbußen)</text>
</g>
<!-- D2&#45;&gt;F2 -->
<g id="edge11" class="edge">
<title>D2&#45;&gt;F2</title>
<path fill="none" stroke="#34495e" d="M672.29,-430.95C690.44,-408.86 722.15,-371.9 753,-343.75 769.12,-329.03 788.37,-314.29 804.83,-302.42"/>
<polygon fill="#34495e" stroke="#34495e" points="812.65,-296.85 807.12,-306.32 809.57,-299.04 804.51,-302.65 804.51,-302.65 804.51,-302.65 809.57,-299.04 801.9,-298.98 812.65,-296.85"/>
<text text-anchor="middle" x="771" y="-360" font-family="Arial" font-size="10.00">Trifft auf</text>
</g>
<!-- F3 -->
<g id="node11" class="node">
<title>F3</title>
<path fill="#fef9e7" stroke="#2c3e50" stroke-width="1.5" d="M935.37,-219.25C935.37,-219.25 624.62,-219.25 624.62,-219.25 618.62,-219.25 612.62,-213.25 612.62,-207.25 612.62,-207.25 612.62,-191.75 612.62,-191.75 612.62,-185.75 618.62,-179.75 624.62,-179.75 624.62,-179.75 935.37,-179.75 935.37,-179.75 941.37,-179.75 947.37,-185.75 947.37,-191.75 947.37,-191.75 947.37,-207.25 947.37,-207.25 947.37,-213.25 941.37,-219.25 935.37,-219.25"/>
<text text-anchor="middle" x="780" y="-201.95" font-family="Arial" font-size="14.00">Demokratisch kaum vermittelbar</text>
<text text-anchor="middle" x="780" y="-186.2" font-family="Arial" font-size="14.00">(z.B. &#45;70% BIP in DE) → Ablehnung von Klimaschutz</text>
</g>
<!-- D2&#45;&gt;F3 -->
<g id="edge12" class="edge">
<title>D2&#45;&gt;F3</title>
<path fill="none" stroke="#34495e" d="M653.4,-431.01C647.46,-393.94 639.61,-310.8 676,-256.25 684.77,-243.1 697.71,-232.8 711.5,-224.85"/>
<polygon fill="#34495e" stroke="#34495e" points="720.07,-220.28 713.36,-228.95 716.73,-222.06 711.25,-224.98 711.25,-224.98 711.25,-224.98 716.73,-222.06 709.13,-221.01 720.07,-220.28"/>
<text text-anchor="middle" x="689.35" y="-316.25" font-family="Arial" font-size="10.00">Politische Hürde</text>
</g>
<!-- F4 -->
<g id="node12" class="node">
<title>F4</title>
<path fill="#fef9e7" stroke="#2c3e50" stroke-width="1.5" d="M759.5,-142.75C759.5,-142.75 404.5,-142.75 404.5,-142.75 398.5,-142.75 392.5,-136.75 392.5,-130.75 392.5,-130.75 392.5,-115.25 392.5,-115.25 392.5,-109.25 398.5,-103.25 404.5,-103.25 404.5,-103.25 759.5,-103.25 759.5,-103.25 765.5,-103.25 771.5,-109.25 771.5,-115.25 771.5,-115.25 771.5,-130.75 771.5,-130.75 771.5,-136.75 765.5,-142.75 759.5,-142.75"/>
<text text-anchor="middle" x="582" y="-125.45" font-family="Arial" font-size="14.00">Blockade grüner Investitionen</text>
<text text-anchor="middle" x="582" y="-109.7" font-family="Arial" font-size="14.00">(Gefahr, Klimaschutz durch restriktive Politik auszubremsen)</text>
</g>
<!-- D2&#45;&gt;F4 -->
<g id="edge13" class="edge">
<title>D2&#45;&gt;F4</title>
<path fill="none" stroke="#34495e" d="M625.62,-430.92C605.07,-415.78 582,-392.54 582,-364.5 582,-364.5 582,-364.5 582,-198.5 582,-183.89 582,-167.68 582,-154.11"/>
<polygon fill="#34495e" stroke="#34495e" points="582,-144.2 586.5,-154.2 582,-147.98 582,-154.2 582,-154.2 582,-154.2 582,-147.98 577.5,-154.2 582,-144.2"/>
<text text-anchor="middle" x="605.25" y="-272.5" font-family="Arial" font-size="10.00">Kritikpunkt</text>
</g>
<!-- E1&#45;&gt;E2 -->
<!-- E2&#45;&gt;E3 -->
<!-- G -->
<g id="node13" class="node">
<title>G</title>
<path fill="#fcf3cf" stroke="#f39c12" stroke-width="1.5" d="M776,-55.25C776,-55.25 388,-55.25 388,-55.25 382,-55.25 376,-49.25 376,-43.25 376,-43.25 376,-12 376,-12 376,-6 382,0 388,0 388,0 776,0 776,0 782,0 788,-6 788,-12 788,-12 788,-43.25 788,-43.25 788,-49.25 782,-55.25 776,-55.25"/>
<text text-anchor="middle" x="582" y="-37.95" font-family="Arial" font-size="14.00" fill="#7e5109">Synthese &amp; Empfehlung der Quellen:</text>
<text text-anchor="middle" x="582" y="-22.2" font-family="Arial" font-size="14.00" fill="#7e5109">Fokus auf massive globale Ausweitung von F&amp;E und Innovationen</text>
<text text-anchor="middle" x="582" y="-6.45" font-family="Arial" font-size="14.00" fill="#7e5109">(Lenkung durch CO2&#45;Zertifikate &amp; Förderprogramme)</text>
</g>
<!-- E3&#45;&gt;G -->
<g id="edge17" class="edge">
<title>E3&#45;&gt;G</title>
<path fill="none" stroke="#34495e" stroke-dasharray="5,2" d="M362.9,-179.36C362.75,-158.27 365.74,-124.55 384,-103.25 399.98,-84.6 421.12,-70.61 443.63,-60.1"/>
<polygon fill="#34495e" stroke="#34495e" points="452.59,-56.16 445.25,-64.31 449.13,-57.68 443.44,-60.19 443.44,-60.19 443.44,-60.19 449.13,-57.68 441.62,-56.07 452.59,-56.16"/>
</g>
<!-- F1&#45;&gt;F2 -->
<!-- F2&#45;&gt;F3 -->
<!-- F3&#45;&gt;F4 -->
<!-- F3&#45;&gt;G -->
<g id="edge18" class="edge">
<title>F3&#45;&gt;G</title>
<path fill="none" stroke="#34495e" stroke-dasharray="5,2" d="M786.18,-179.45C791.63,-158.76 796.54,-125.68 781,-103.25 768.26,-84.88 750.41,-71.02 730.57,-60.57"/>
<polygon fill="#34495e" stroke="#34495e" points="721.79,-56.25 732.75,-56.62 725.18,-57.92 730.76,-60.66 730.76,-60.66 730.76,-60.66 725.18,-57.92 728.77,-64.7 721.79,-56.25"/>
<text text-anchor="middle" x="813.21" y="-119.5" font-family="Arial" font-size="10.00">Vermeidet</text>
</g>
<!-- F4&#45;&gt;G -->
<g id="edge19" class="edge">
<title>F4&#45;&gt;G</title>
<path fill="none" stroke="#34495e" stroke-dasharray="5,2" d="M582,-103.1C582,-92.66 582,-79.3 582,-66.78"/>
<polygon fill="#34495e" stroke="#34495e" points="582,-56.85 586.5,-66.85 582,-60.63 582,-66.85 582,-66.85 582,-66.85 582,-60.63 577.5,-66.85 582,-56.85"/>
<text text-anchor="middle" x="604.87" y="-75.75" font-family="Arial" font-size="10.00">Lösung für</text>
</g>
</g>
</svg>
