<?xml version="1.0" encoding="UTF-8" standalone="no"?>
<!DOCTYPE svg PUBLIC "-//W3C//DTD SVG 1.1//EN"
 "http://www.w3.org/Graphics/SVG/1.1/DTD/svg11.dtd">
<!-- Generated by graphviz version 12.2.1 (20241206.2353)
 -->
<!-- Pages: 1 -->
<svg width="720pt" height="423pt"
 viewBox="0.00 0.00 720.00 423.00" xmlns="http://www.w3.org/2000/svg" xmlns:xlink="http://www.w3.org/1999/xlink">
<g id="graph0" class="graph" transform="scale(0.818182 0.818182) rotate(0) translate(4 513)">
<polygon fill="white" stroke="none" points="-4,4 -4,-513 876,-513 876,4 -4,4"/>
<g id="clust1" class="cluster">
<title>cluster_0</title>
<polygon fill="none" stroke="black" stroke-dasharray="1,5" points="80,-8 80,-87.25 864,-87.25 864,-8 80,-8"/>
<text text-anchor="middle" x="472" y="-69.95" font-family="Arial" font-size="14.00">Materieller Wohlstand &amp; Stabilität</text>
</g>
<g id="clust2" class="cluster">
<title>cluster_1</title>
<polygon fill="none" stroke="black" stroke-dasharray="1,5" points="8,-198.25 8,-427 192,-427 192,-198.25 8,-198.25"/>
<text text-anchor="middle" x="100" y="-409.7" font-family="Arial" font-size="14.00">Innovation</text>
</g>
<g id="clust3" class="cluster">
<title>cluster_2</title>
<polygon fill="none" stroke="black" stroke-dasharray="1,5" points="200,-271.25 200,-427 542,-427 542,-271.25 200,-271.25"/>
<text text-anchor="middle" x="371" y="-409.7" font-family="Arial" font-size="14.00">Ökologische Transformation</text>
</g>
<!-- W -->
<g id="node1" class="node">
<title>W</title>
<path fill="#d1e8ff" stroke="lightblue" d="M574.5,-509C574.5,-509 453.5,-509 453.5,-509 447.5,-509 441.5,-503 441.5,-497 441.5,-497 441.5,-481.5 441.5,-481.5 441.5,-475.5 447.5,-469.5 453.5,-469.5 453.5,-469.5 574.5,-469.5 574.5,-469.5 580.5,-469.5 586.5,-475.5 586.5,-481.5 586.5,-481.5 586.5,-497 586.5,-497 586.5,-503 580.5,-509 574.5,-509"/>
<text text-anchor="middle" x="514" y="-491.7" font-family="Arial" font-size="14.00">Wirtschaftswachstum</text>
<text text-anchor="middle" x="514" y="-475.95" font-family="Arial" font-size="14.00">(Anstieg des BIP)</text>
</g>
<!-- BIP_Kopf -->
<g id="node2" class="node">
<title>BIP_Kopf</title>
<path fill="#e1f5fe" stroke="lightblue" d="M324.38,-153.75C324.38,-153.75 169.62,-153.75 169.62,-153.75 163.62,-153.75 157.62,-147.75 157.62,-141.75 157.62,-141.75 157.62,-126.25 157.62,-126.25 157.62,-120.25 163.62,-114.25 169.62,-114.25 169.62,-114.25 324.38,-114.25 324.38,-114.25 330.38,-114.25 336.38,-120.25 336.38,-126.25 336.38,-126.25 336.38,-141.75 336.38,-141.75 336.38,-147.75 330.38,-153.75 324.38,-153.75"/>
<text text-anchor="middle" x="247" y="-136.45" font-family="Arial" font-size="14.00">BIP pro Kopf</text>
<text text-anchor="middle" x="247" y="-120.7" font-family="Arial" font-size="14.00">(Maßstab Lebensstandard)</text>
</g>
<!-- W&#45;&gt;BIP_Kopf -->
<g id="edge1" class="edge">
<title>W&#45;&gt;BIP_Kopf</title>
<path fill="none" stroke="black" d="M535.34,-469.22C540.16,-463.93 544.8,-457.87 548,-451.5 563.22,-421.2 562,-410.41 562,-376.5 562,-376.5 562,-376.5 562,-223.25 562,-178.07 440.31,-154.96 348.2,-143.94"/>
<polygon fill="black" stroke="black" points="348.68,-140.47 338.35,-142.8 347.88,-147.42 348.68,-140.47"/>
</g>
<!-- Sozialstaat -->
<g id="node5" class="node">
<title>Sozialstaat</title>
<path fill="lightblue" stroke="lightblue" d="M642.5,-55.5C642.5,-55.5 473.5,-55.5 473.5,-55.5 467.5,-55.5 461.5,-49.5 461.5,-43.5 461.5,-43.5 461.5,-28 461.5,-28 461.5,-22 467.5,-16 473.5,-16 473.5,-16 642.5,-16 642.5,-16 648.5,-16 654.5,-22 654.5,-28 654.5,-28 654.5,-43.5 654.5,-43.5 654.5,-49.5 648.5,-55.5 642.5,-55.5"/>
<text text-anchor="middle" x="558" y="-38.2" font-family="Arial" font-size="14.00">Finanzierung Sozialstaat</text>
<text text-anchor="middle" x="558" y="-22.45" font-family="Arial" font-size="14.00">(Rente, Bildung, Infrastruktur)</text>
</g>
<!-- W&#45;&gt;Sozialstaat -->
<g id="edge5" class="edge">
<title>W&#45;&gt;Sozialstaat</title>
<path fill="none" stroke="black" d="M546.76,-469.1C553.71,-464 560.58,-458.06 566,-451.5 589.31,-423.29 600,-413.1 600,-376.5 600,-376.5 600,-376.5 600,-133 600,-108.96 588.86,-84.15 578.05,-65.74"/>
<polygon fill="black" stroke="black" points="581.03,-63.9 572.78,-57.24 575.08,-67.59 581.03,-63.9"/>
</g>
<!-- Arbeit -->
<g id="node6" class="node">
<title>Arbeit</title>
<path fill="lightblue" stroke="lightblue" d="M843.62,-53.75C843.62,-53.75 684.38,-53.75 684.38,-53.75 678.38,-53.75 672.38,-47.75 672.38,-41.75 672.38,-41.75 672.38,-29.75 672.38,-29.75 672.38,-23.75 678.38,-17.75 684.38,-17.75 684.38,-17.75 843.62,-17.75 843.62,-17.75 849.62,-17.75 855.62,-23.75 855.62,-29.75 855.62,-29.75 855.62,-41.75 855.62,-41.75 855.62,-47.75 849.62,-53.75 843.62,-53.75"/>
<text text-anchor="middle" x="764" y="-30.32" font-family="Arial" font-size="14.00">Arbeitsplätze &amp; Einkommen</text>
</g>
<!-- W&#45;&gt;Arbeit -->
<g id="edge4" class="edge">
<title>W&#45;&gt;Arbeit</title>
<path fill="none" stroke="black" d="M586.75,-479.23C646.73,-467.25 722,-439.63 722,-376.5 722,-376.5 722,-376.5 722,-133 722,-108.08 733.97,-82.33 745.13,-63.74"/>
<polygon fill="black" stroke="black" points="747.97,-65.81 750.36,-55.48 742.06,-62.06 747.97,-65.81"/>
</g>
<!-- Invest -->
<g id="node7" class="node">
<title>Invest</title>
<path fill="lightblue" stroke="lightblue" d="M163.62,-395.25C163.62,-395.25 52.38,-395.25 52.38,-395.25 46.38,-395.25 40.38,-389.25 40.38,-383.25 40.38,-383.25 40.38,-367.75 40.38,-367.75 40.38,-361.75 46.38,-355.75 52.38,-355.75 52.38,-355.75 163.62,-355.75 163.62,-355.75 169.62,-355.75 175.62,-361.75 175.62,-367.75 175.62,-367.75 175.62,-383.25 175.62,-383.25 175.62,-389.25 169.62,-395.25 163.62,-395.25"/>
<text text-anchor="middle" x="108" y="-377.95" font-family="Arial" font-size="14.00">Investitionsanreize</text>
<text text-anchor="middle" x="108" y="-362.2" font-family="Arial" font-size="14.00">&amp; Renditeerwartung</text>
</g>
<!-- W&#45;&gt;Invest -->
<g id="edge6" class="edge">
<title>W&#45;&gt;Invest</title>
<path fill="none" stroke="black" d="M441.11,-481.15C375.44,-473.14 277.03,-457.1 196,-427 178.53,-420.51 160.46,-410.76 145.28,-401.55"/>
<polygon fill="black" stroke="black" points="147.38,-398.73 137.04,-396.41 143.68,-404.67 147.38,-398.73"/>
</g>
<!-- Klima -->
<g id="node10" class="node">
<title>Klima</title>
<path fill="lightblue" stroke="lightblue" d="M347.88,-395.25C347.88,-395.25 220.12,-395.25 220.12,-395.25 214.12,-395.25 208.12,-389.25 208.12,-383.25 208.12,-383.25 208.12,-367.75 208.12,-367.75 208.12,-361.75 214.12,-355.75 220.12,-355.75 220.12,-355.75 347.88,-355.75 347.88,-355.75 353.88,-355.75 359.88,-361.75 359.88,-367.75 359.88,-367.75 359.88,-383.25 359.88,-383.25 359.88,-389.25 353.88,-395.25 347.88,-395.25"/>
<text text-anchor="middle" x="284" y="-377.95" font-family="Arial" font-size="14.00">Klimaneutraler Umbau</text>
<text text-anchor="middle" x="284" y="-362.2" font-family="Arial" font-size="14.00">(Hoher Kapitalbedarf)</text>
</g>
<!-- W&#45;&gt;Klima -->
<g id="edge10" class="edge">
<title>W&#45;&gt;Klima</title>
<path fill="none" stroke="black" d="M441.13,-477.4C416.62,-471.86 389.75,-463.63 367,-451.5 344.38,-439.44 323.02,-419.88 307.64,-403.76"/>
<polygon fill="black" stroke="black" points="310.56,-401.76 301.19,-396.81 305.42,-406.52 310.56,-401.76"/>
<text text-anchor="middle" x="412" y="-438.2" font-family="Times New Roman,serif" font-size="14.00">finanzielle Basis</text>
</g>
<!-- Kritik -->
<g id="node12" class="node">
<title>Kritik</title>
<path fill="#ffcdd2" stroke="lightblue" d="M522.12,-395.25C522.12,-395.25 389.88,-395.25 389.88,-395.25 383.88,-395.25 377.88,-389.25 377.88,-383.25 377.88,-383.25 377.88,-367.75 377.88,-367.75 377.88,-361.75 383.88,-355.75 389.88,-355.75 389.88,-355.75 522.12,-355.75 522.12,-355.75 528.12,-355.75 534.12,-361.75 534.12,-367.75 534.12,-367.75 534.12,-383.25 534.12,-383.25 534.12,-389.25 528.12,-395.25 522.12,-395.25"/>
<text text-anchor="middle" x="456" y="-377.95" font-family="Arial" font-size="14.00">Wachstumskritik</text>
<text text-anchor="middle" x="456" y="-362.2" font-family="Arial" font-size="14.00">(Ökologische Grenzen)</text>
</g>
<!-- W&#45;&gt;Kritik -->
<g id="edge12" class="edge">
<title>W&#45;&gt;Kritik</title>
<path fill="none" stroke="red" d="M475.27,-461.57C472.41,-458.44 469.83,-455.08 467.75,-451.5 459.98,-438.15 456.86,-421.31 455.76,-406.97"/>
<polygon fill="red" stroke="red" points="472.62,-463.88 482.28,-468.24 477.45,-458.81 472.62,-463.88"/>
<polygon fill="red" stroke="red" points="459.27,-406.99 455.33,-397.15 452.27,-407.3 459.27,-406.99"/>
<text text-anchor="middle" x="507.88" y="-438.2" font-family="Times New Roman,serif" font-size="14.00">Spannungsfeld</text>
</g>
<!-- Armut -->
<g id="node3" class="node">
<title>Armut</title>
<path fill="lightblue" stroke="lightblue" d="M206.38,-53.75C206.38,-53.75 99.62,-53.75 99.62,-53.75 93.62,-53.75 87.62,-47.75 87.62,-41.75 87.62,-41.75 87.62,-29.75 87.62,-29.75 87.62,-23.75 93.62,-17.75 99.62,-17.75 99.62,-17.75 206.38,-17.75 206.38,-17.75 212.38,-17.75 218.38,-23.75 218.38,-29.75 218.38,-29.75 218.38,-41.75 218.38,-41.75 218.38,-47.75 212.38,-53.75 206.38,-53.75"/>
<text text-anchor="middle" x="153" y="-30.32" font-family="Arial" font-size="14.00">Armutsreduzierung</text>
</g>
<!-- BIP_Kopf&#45;&gt;Armut -->
<g id="edge2" class="edge">
<title>BIP_Kopf&#45;&gt;Armut</title>
<path fill="none" stroke="black" d="M228.43,-113.98C213.94,-99.15 193.68,-78.4 177.8,-62.14"/>
<polygon fill="black" stroke="black" points="180.5,-59.9 171.01,-55.19 175.49,-64.79 180.5,-59.9"/>
</g>
<!-- Gesundheit -->
<g id="node4" class="node">
<title>Gesundheit</title>
<path fill="lightblue" stroke="lightblue" d="M431.25,-53.75C431.25,-53.75 248.75,-53.75 248.75,-53.75 242.75,-53.75 236.75,-47.75 236.75,-41.75 236.75,-41.75 236.75,-29.75 236.75,-29.75 236.75,-23.75 242.75,-17.75 248.75,-17.75 248.75,-17.75 431.25,-17.75 431.25,-17.75 437.25,-17.75 443.25,-23.75 443.25,-29.75 443.25,-29.75 443.25,-41.75 443.25,-41.75 443.25,-47.75 437.25,-53.75 431.25,-53.75"/>
<text text-anchor="middle" x="340" y="-30.32" font-family="Arial" font-size="14.00">Gesundheit &amp; Lebenserwartung</text>
</g>
<!-- BIP_Kopf&#45;&gt;Gesundheit -->
<g id="edge3" class="edge">
<title>BIP_Kopf&#45;&gt;Gesundheit</title>
<path fill="none" stroke="black" d="M265.37,-113.98C279.71,-99.15 299.76,-78.4 315.46,-62.14"/>
<polygon fill="black" stroke="black" points="317.74,-64.82 322.18,-55.2 312.71,-59.96 317.74,-64.82"/>
</g>
<!-- FE -->
<g id="node8" class="node">
<title>FE</title>
<path fill="lightblue" stroke="lightblue" d="M172.12,-317C172.12,-317 27.88,-317 27.88,-317 21.88,-317 15.88,-311 15.88,-305 15.88,-305 15.88,-293 15.88,-293 15.88,-287 21.88,-281 27.88,-281 27.88,-281 172.12,-281 172.12,-281 178.12,-281 184.12,-287 184.12,-293 184.12,-293 184.12,-305 184.12,-305 184.12,-311 178.12,-317 172.12,-317"/>
<text text-anchor="middle" x="100" y="-293.57" font-family="Arial" font-size="14.00">Forschung &amp; Entwicklung</text>
</g>
<!-- Invest&#45;&gt;FE -->
<g id="edge7" class="edge">
<title>Invest&#45;&gt;FE</title>
<path fill="none" stroke="black" d="M105.94,-355.31C105.06,-347.16 104.03,-337.48 103.06,-328.52"/>
<polygon fill="black" stroke="black" points="106.57,-328.41 102.02,-318.84 99.61,-329.16 106.57,-328.41"/>
</g>
<!-- Prod -->
<g id="node9" class="node">
<title>Prod</title>
<path fill="lightblue" stroke="lightblue" d="M170,-242.25C170,-242.25 34,-242.25 34,-242.25 28,-242.25 22,-236.25 22,-230.25 22,-230.25 22,-218.25 22,-218.25 22,-212.25 28,-206.25 34,-206.25 34,-206.25 170,-206.25 170,-206.25 176,-206.25 182,-212.25 182,-218.25 182,-218.25 182,-230.25 182,-230.25 182,-236.25 176,-242.25 170,-242.25"/>
<text text-anchor="middle" x="102" y="-218.82" font-family="Arial" font-size="14.00">Produktivitätssteigerung</text>
</g>
<!-- FE&#45;&gt;Prod -->
<g id="edge8" class="edge">
<title>FE&#45;&gt;Prod</title>
<path fill="none" stroke="black" d="M100.47,-280.76C100.69,-272.75 100.96,-263.02 101.21,-253.95"/>
<polygon fill="black" stroke="black" points="104.7,-254.22 101.48,-244.13 97.71,-254.03 104.7,-254.22"/>
</g>
<!-- Prod&#45;&gt;BIP_Kopf -->
<g id="edge9" class="edge">
<title>Prod&#45;&gt;BIP_Kopf</title>
<path fill="none" stroke="black" d="M130.65,-205.81C152.12,-192.75 181.81,-174.68 205.83,-160.06"/>
<polygon fill="black" stroke="black" points="207.38,-163.21 214.1,-155.02 203.74,-157.23 207.38,-163.21"/>
<text text-anchor="middle" x="210.93" y="-174.95" font-family="Times New Roman,serif" font-size="14.00">langfristig</text>
</g>
<!-- Entkoppel -->
<g id="node11" class="node">
<title>Entkoppel</title>
<path fill="lightblue" stroke="lightblue" d="M346,-318.75C346,-318.75 222,-318.75 222,-318.75 216,-318.75 210,-312.75 210,-306.75 210,-306.75 210,-291.25 210,-291.25 210,-285.25 216,-279.25 222,-279.25 222,-279.25 346,-279.25 346,-279.25 352,-279.25 358,-285.25 358,-291.25 358,-291.25 358,-306.75 358,-306.75 358,-312.75 352,-318.75 346,-318.75"/>
<text text-anchor="middle" x="284" y="-301.45" font-family="Arial" font-size="14.00">Entkoppelung vom</text>
<text text-anchor="middle" x="284" y="-285.7" font-family="Arial" font-size="14.00">Ressourcenverbrauch</text>
</g>
<!-- Klima&#45;&gt;Entkoppel -->
<g id="edge11" class="edge">
<title>Klima&#45;&gt;Entkoppel</title>
<path fill="none" stroke="black" stroke-dasharray="5,2" d="M284,-355.31C284,-347.75 284,-338.88 284,-330.49"/>
<polygon fill="black" stroke="black" points="287.5,-330.63 284,-320.63 280.5,-330.63 287.5,-330.63"/>
</g>
</g>
</svg>
