<?xml version="1.0" encoding="UTF-8" standalone="no"?>
<!DOCTYPE svg PUBLIC "-//W3C//DTD SVG 1.1//EN"
 "http://www.w3.org/Graphics/SVG/1.1/DTD/svg11.dtd">
<!-- Generated by graphviz version 12.2.1 (20241206.2353)
 -->
<!-- Pages: 1 -->
<svg width="532pt" height="690pt"
 viewBox="0.00 0.00 532.42 689.92" xmlns="http://www.w3.org/2000/svg" xmlns:xlink="http://www.w3.org/1999/xlink">
<g id="graph0" class="graph" transform="scale(1 1) rotate(0) translate(4 685.92)">
<polygon fill="white" stroke="none" points="-4,4 -4,-685.92 528.42,-685.92 528.42,4 -4,4"/>
<g id="clust1" class="cluster">
<title>cluster_foundation</title>
<polygon fill="#f5f5f5" stroke="#f5f5f5" points="269.42,-598.17 269.42,-673.92 516.42,-673.92 516.42,-598.17 269.42,-598.17"/>
<text text-anchor="middle" x="392.92" y="-656.62" font-family="Arial" font-size="14.00">1. INSTITUTIONELLES FUNDAMENT</text>
</g>
<g id="clust2" class="cluster">
<title>cluster_factors</title>
<polygon fill="#e3f2fd" stroke="#e3f2fd" points="38.42,-492.42 38.42,-568.17 361.42,-568.17 361.42,-492.42 38.42,-492.42"/>
<text text-anchor="middle" x="199.92" y="-550.87" font-family="Arial" font-size="14.00">2. PRODUKTIONSFAKTOREN (INPUT)</text>
</g>
<g id="clust3" class="cluster">
<title>cluster_engine</title>
<polygon fill="#e8f5e9" stroke="#e8f5e9" points="207.42,-244.17 207.42,-446.92 500.42,-446.92 500.42,-244.17 207.42,-244.17"/>
<text text-anchor="middle" x="353.92" y="-429.62" font-family="Arial" font-size="14.00">3. TECHNISCHER FORTSCHRITT (MOTOR)</text>
</g>
<!-- INST -->
<g id="node1" class="node">
<title>INST</title>
<path fill="#eeeeee" stroke="none" d="M475.42,-642.17C475.42,-642.17 309.42,-642.17 309.42,-642.17 303.42,-642.17 297.42,-636.17 297.42,-630.17 297.42,-630.17 297.42,-618.17 297.42,-618.17 297.42,-612.17 303.42,-606.17 309.42,-606.17 309.42,-606.17 475.42,-606.17 475.42,-606.17 481.42,-606.17 487.42,-612.17 487.42,-618.17 487.42,-618.17 487.42,-630.17 487.42,-630.17 487.42,-636.17 481.42,-642.17 475.42,-642.17"/>
<text text-anchor="middle" x="392.42" y="-627.22" font-family="Arial" font-size="11.00">Rechtssicherheit &amp; Eigentumsrechte</text>
<text text-anchor="middle" x="392.42" y="-613.72" font-family="Arial" font-size="11.00">Finanzsystem (Kapitalallokation)</text>
</g>
<!-- K -->
<g id="node2" class="node">
<title>K</title>
<path fill="#bbdefb" stroke="none" d="M180.67,-536.42C180.67,-536.42 58.17,-536.42 58.17,-536.42 52.17,-536.42 46.17,-530.42 46.17,-524.42 46.17,-524.42 46.17,-512.42 46.17,-512.42 46.17,-506.42 52.17,-500.42 58.17,-500.42 58.17,-500.42 180.67,-500.42 180.67,-500.42 186.67,-500.42 192.67,-506.42 192.67,-512.42 192.67,-512.42 192.67,-524.42 192.67,-524.42 192.67,-530.42 186.67,-536.42 180.67,-536.42"/>
<text text-anchor="middle" x="119.42" y="-521.47" font-family="Arial" font-size="11.00">Sachkapital</text>
<text text-anchor="middle" x="119.42" y="-507.97" font-family="Arial" font-size="11.00">(Maschinen &amp; Infrastruktur)</text>
</g>
<!-- INST&#45;&gt;K -->
<g id="edge1" class="edge">
<title>INST&#45;&gt;K</title>
<path fill="none" stroke="black" d="M323.86,-605.69C289.55,-596.11 247.7,-583.13 211.42,-568.17 193.43,-560.75 174.3,-550.95 158.17,-542.08"/>
<polygon fill="black" stroke="black" points="160.31,-539.27 149.88,-537.45 156.9,-545.38 160.31,-539.27"/>
</g>
<!-- RD -->
<g id="node4" class="node">
<title>RD</title>
<path fill="#c8e6c9" stroke="none" d="M373.67,-415.17C373.67,-415.17 227.17,-415.17 227.17,-415.17 221.17,-415.17 215.17,-409.17 215.17,-403.17 215.17,-403.17 215.17,-391.17 215.17,-391.17 215.17,-385.17 221.17,-379.17 227.17,-379.17 227.17,-379.17 373.67,-379.17 373.67,-379.17 379.67,-379.17 385.67,-385.17 385.67,-391.17 385.67,-391.17 385.67,-403.17 385.67,-403.17 385.67,-409.17 379.67,-415.17 373.67,-415.17"/>
<text text-anchor="middle" x="300.42" y="-393.47" font-family="Arial" font-size="11.00">Forschung &amp; Entwicklung (F&amp;E)</text>
</g>
<!-- INST&#45;&gt;RD -->
<g id="edge2" class="edge">
<title>INST&#45;&gt;RD</title>
<path fill="none" stroke="black" d="M396.53,-605.8C403.15,-573.66 412.84,-503.73 385.42,-454.92 377.66,-441.1 364.96,-430.02 351.73,-421.44"/>
<polygon fill="black" stroke="black" points="353.73,-418.56 343.35,-416.41 350.12,-424.56 353.73,-418.56"/>
</g>
<!-- OUT -->
<g id="node6" class="node">
<title>OUT</title>
<polygon fill="#fff9c4" stroke="none" stroke-width="2" points="294.84,-116.04 294.84,-140.13 209.65,-157.17 89.18,-157.17 4,-140.13 4,-116.04 89.18,-99 209.65,-99 294.84,-116.04"/>
<polygon fill="none" stroke="none" stroke-width="2" points="298.84,-112.76 298.84,-143.41 210.05,-161.17 88.79,-161.17 0,-143.41 0,-112.76 88.79,-95 210.05,-95 298.84,-112.76"/>
<text text-anchor="middle" x="149.42" y="-130.73" font-family="Arial" font-size="13.00">WIRTSCHAFTSWACHSTUM</text>
<text text-anchor="middle" x="149.42" y="-115.73" font-family="Arial" font-size="13.00">(Steigerung des Wohlstands)</text>
</g>
<!-- K&#45;&gt;OUT -->
<g id="edge3" class="edge">
<title>K&#45;&gt;OUT</title>
<path fill="none" stroke="black" d="M119.25,-500.32C118.96,-470.06 118.37,-405.05 118.17,-350.17 118.11,-335.5 116.96,-331.78 118.17,-317.17 122.29,-267.24 132.46,-210.61 140.09,-172.65"/>
<polygon fill="black" stroke="black" points="143.49,-173.48 142.06,-162.98 136.63,-172.08 143.49,-173.48"/>
<text text-anchor="middle" x="158.29" y="-336.87" font-family="Times New Roman,serif" font-size="14.00">sinkende</text>
<text text-anchor="middle" x="158.29" y="-320.37" font-family="Times New Roman,serif" font-size="14.00"> Grenzerträge?</text>
</g>
<!-- H -->
<g id="node3" class="node">
<title>H</title>
<path fill="#bbdefb" stroke="none" d="M341.79,-536.42C341.79,-536.42 241.04,-536.42 241.04,-536.42 235.04,-536.42 229.04,-530.42 229.04,-524.42 229.04,-524.42 229.04,-512.42 229.04,-512.42 229.04,-506.42 235.04,-500.42 241.04,-500.42 241.04,-500.42 341.79,-500.42 341.79,-500.42 347.79,-500.42 353.79,-506.42 353.79,-512.42 353.79,-512.42 353.79,-524.42 353.79,-524.42 353.79,-530.42 347.79,-536.42 341.79,-536.42"/>
<text text-anchor="middle" x="291.42" y="-521.47" font-family="Arial" font-size="11.00">Humankapital</text>
<text text-anchor="middle" x="291.42" y="-507.97" font-family="Arial" font-size="11.00">(Bildung &amp; Know&#45;how)</text>
</g>
<!-- H&#45;&gt;RD -->
<g id="edge4" class="edge">
<title>H&#45;&gt;RD</title>
<path fill="none" stroke="black" d="M292.73,-500.08C294.17,-480.91 296.53,-449.74 298.25,-426.91"/>
<polygon fill="black" stroke="black" points="301.73,-427.27 299,-417.04 294.75,-426.75 301.73,-427.27"/>
<text text-anchor="middle" x="337.17" y="-458.12" font-family="Times New Roman,serif" font-size="14.00">Basis für Ideen</text>
</g>
<!-- INNO -->
<g id="node5" class="node">
<title>INNO</title>
<path fill="#c8e6c9" stroke="none" d="M350.29,-288.17C350.29,-288.17 234.54,-288.17 234.54,-288.17 228.54,-288.17 222.54,-282.17 222.54,-276.17 222.54,-276.17 222.54,-264.17 222.54,-264.17 222.54,-258.17 228.54,-252.17 234.54,-252.17 234.54,-252.17 350.29,-252.17 350.29,-252.17 356.29,-252.17 362.29,-258.17 362.29,-264.17 362.29,-264.17 362.29,-276.17 362.29,-276.17 362.29,-282.17 356.29,-288.17 350.29,-288.17"/>
<text text-anchor="middle" x="292.42" y="-273.22" font-family="Arial" font-size="11.00">Schöpferische Zerstörung</text>
<text text-anchor="middle" x="292.42" y="-259.72" font-family="Arial" font-size="11.00">&amp; Spezialisierung</text>
</g>
<!-- RD&#45;&gt;INNO -->
<g id="edge5" class="edge">
<title>RD&#45;&gt;INNO</title>
<path fill="none" stroke="black" d="M299.31,-378.79C298,-358.36 295.81,-324.15 294.25,-299.79"/>
<polygon fill="black" stroke="black" points="297.75,-299.67 293.62,-289.91 290.77,-300.11 297.75,-299.67"/>
</g>
<!-- INNO&#45;&gt;OUT -->
<g id="edge6" class="edge">
<title>INNO&#45;&gt;OUT</title>
<path fill="none" stroke="black" stroke-width="2" d="M274.6,-251.71C253.95,-231.48 219.22,-197.46 191.57,-170.38"/>
<polygon fill="black" stroke="black" stroke-width="2" points="194.25,-168.1 184.66,-163.61 189.36,-173.1 194.25,-168.1"/>
<text text-anchor="middle" x="288.96" y="-209.87" font-family="Times New Roman,serif" font-size="14.00">hinreichend hohe</text>
<text text-anchor="middle" x="288.96" y="-193.37" font-family="Times New Roman,serif" font-size="14.00"> Grenzerträge</text>
</g>
<!-- GREEN -->
<g id="node7" class="node">
<title>GREEN</title>
<path fill="green" stroke="green" d="M206.92,-36C206.92,-36 91.92,-36 91.92,-36 85.92,-36 79.92,-30 79.92,-24 79.92,-24 79.92,-12 79.92,-12 79.92,-6 85.92,0 91.92,0 91.92,0 206.92,0 206.92,0 212.92,0 218.92,-6 218.92,-12 218.92,-12 218.92,-24 218.92,-24 218.92,-30 212.92,-36 206.92,-36"/>
<text text-anchor="middle" x="149.42" y="-21.05" font-family="Arial" font-size="11.00" fill="white">Grüne Transformation</text>
<text text-anchor="middle" x="149.42" y="-7.55" font-family="Arial" font-size="11.00" fill="white">(Nachhaltiges Wachstum)</text>
</g>
<!-- OUT&#45;&gt;GREEN -->
<g id="edge7" class="edge">
<title>OUT&#45;&gt;GREEN</title>
<path fill="none" stroke="black" stroke-dasharray="1,5" d="M149.42,-94.66C149.42,-79.69 149.42,-62.08 149.42,-47.62"/>
<polygon fill="black" stroke="black" points="152.92,-47.85 149.42,-37.85 145.92,-47.85 152.92,-47.85"/>
</g>
</g>
</svg>
